<?xml version="1.0" encoding="UTF-8" standalone="no"?>
<!-- Created with Inkscape (http://www.inkscape.org/) -->

<svg
   xmlns:dc="http://purl.org/dc/elements/1.1/"
   xmlns:cc="http://creativecommons.org/ns#"
   xmlns:rdf="http://www.w3.org/1999/02/22-rdf-syntax-ns#"
   xmlns:svg="http://www.w3.org/2000/svg"
   xmlns="http://www.w3.org/2000/svg"
   xmlns:sodipodi="http://sodipodi.sourceforge.net/DTD/sodipodi-0.dtd"
   xmlns:inkscape="http://www.inkscape.org/namespaces/inkscape"
   width="32"
   height="32"
   id="svg4136"
   version="1.1"
   inkscape:version="0.91pre3 r13670"
   viewBox="0 0 32 32"
   sodipodi:docname="PlayerCameraController icon.svg"
   inkscape:export-filename="D:\Git clones\revealers\.src\Revealers - The shattering\Assets\Gizmos\PlayerCameraController icon.png"
   inkscape:export-xdpi="90"
   inkscape:export-ydpi="90">
  <defs
     id="defs4138">
    <filter
       inkscape:collect="always"
       style="color-interpolation-filters:sRGB"
       id="filter4181"
       x="-0.053040432"
       width="1.1060809"
       y="-0.069061767"
       height="1.1381235">
      <feGaussianBlur
         inkscape:collect="always"
         stdDeviation="0.6715088"
         id="feGaussianBlur4183" />
    </filter>
  </defs>
  <sodipodi:namedview
     id="base"
     pagecolor="#ffffff"
     bordercolor="#666666"
     borderopacity="1.0"
     inkscape:pageopacity="0.0"
     inkscape:pageshadow="2"
     inkscape:zoom="15.836083"
     inkscape:cx="9.0745914"
     inkscape:cy="13.482457"
     inkscape:current-layer="layer2"
     showgrid="true"
     inkscape:grid-bbox="true"
     inkscape:document-units="px"
     inkscape:window-width="1600"
     inkscape:window-height="837"
     inkscape:window-x="-8"
     inkscape:window-y="-8"
     inkscape:window-maximized="1" />
  <metadata
     id="metadata4141">
    <rdf:RDF>
      <cc:Work
         rdf:about="">
        <dc:format>image/svg+xml</dc:format>
        <dc:type
           rdf:resource="http://purl.org/dc/dcmitype/StillImage" />
        <dc:title />
      </cc:Work>
    </rdf:RDF>
  </metadata>
  <g
     id="layer1"
     inkscape:label="Layer 1"
     inkscape:groupmode="layer"
     style="display:inline">
    <path
       inkscape:connector-curvature="0"
       id="path4150"
       d="m 15.612305,4.3320311 c -3.332578,5.586e-4 -6.0337242,2.7025787 -6.0332032,6.0351559 0.0013,0.927772 0.2165055,1.842751 0.6289062,2.673828 -0.9951107,-0.670213 -2.1674241,-1.02857 -3.3671874,-1.029296 -3.3325774,5.59e-4 -6.03372319,2.702579 -6.03320319,6.035156 5.585e-4,3.331815 2.70138849,6.032645 6.03320319,6.033203 0.2173775,-0.0019 0.4344909,-0.01564 0.6503906,-0.04102 l 0,2.136719 c 0,0.826735 0.6654694,1.492188 1.4921875,1.492188 l 13.2011723,0 c 0.826724,0 1.494141,-0.665453 1.494141,-1.492188 l 0,-2.859375 0,-0.857422 6.070312,2.621094 c 0.733955,0.316774 1.443359,-0.554119 1.443359,-1.353516 l 0,-6.765625 c 0,-0.799397 -0.709404,-1.670289 -1.443359,-1.353515 l -6.070312,2.621093 0,-0.103515 0,-2.857422 c 0,-0.826718 -0.667417,-1.492187 -1.494141,-1.492187 l -1.59375,0 c 0.687737,-1.00357 1.056057,-2.191597 1.056641,-3.408204 5.2e-4,-3.3333399 -2.701817,-6.035676 -6.035157,-6.0351559 z"
       style="display:inline;opacity:1;fill:#000000;fill-opacity:1;stroke:none;stroke-width:0.5;stroke-linecap:round;stroke-linejoin:round;stroke-miterlimit:4;stroke-dasharray:none;stroke-opacity:1;filter:url(#filter4181)" />
  </g>
  <g
     inkscape:groupmode="layer"
     id="layer2"
     inkscape:label="Layer 2"
     style="display:inline">
    <path
       style="display:inline;opacity:1;fill:#ffffff;fill-opacity:1;stroke:none;stroke-width:0.5;stroke-linecap:round;stroke-linejoin:round;stroke-miterlimit:4;stroke-dasharray:none;stroke-opacity:1"
       d="m 15.612305,4.3320311 c -3.332578,5.586e-4 -6.0337242,2.7025787 -6.0332032,6.0351559 0.0013,0.927772 0.2165055,1.842751 0.6289062,2.673828 -0.9951107,-0.670213 -2.1674241,-1.02857 -3.3671874,-1.029296 -3.3325774,5.59e-4 -6.03372319,2.702579 -6.03320319,6.035156 5.585e-4,3.331815 2.70138849,6.032645 6.03320319,6.033203 0.2173775,-0.0019 0.4344909,-0.01564 0.6503906,-0.04102 l 0,2.136719 c 0,0.826735 0.6654694,1.492188 1.4921875,1.492188 l 13.2011723,0 c 0.826724,0 1.494141,-0.665453 1.494141,-1.492188 l 0,-2.859375 0,-0.857422 6.070312,2.621094 c 0.733955,0.316774 1.443359,-0.554119 1.443359,-1.353516 l 0,-6.765625 c 0,-0.799397 -0.709404,-1.670289 -1.443359,-1.353515 l -6.070312,2.621093 0,-0.103515 0,-2.857422 c 0,-0.826718 -0.667417,-1.492187 -1.494141,-1.492187 l -1.59375,0 c 0.687737,-1.00357 1.056057,-2.191597 1.056641,-3.408204 5.2e-4,-3.3333399 -2.701817,-6.035676 -6.035157,-6.0351559 z"
       id="path4166"
       inkscape:connector-curvature="0" />
  </g>
</svg>
