<?xml version="1.0" encoding="UTF-8" standalone="no"?>
<!-- Created with Inkscape (http://www.inkscape.org/) -->

<svg
   xmlns:osb="http://www.openswatchbook.org/uri/2009/osb"
   xmlns:dc="http://purl.org/dc/elements/1.1/"
   xmlns:cc="http://creativecommons.org/ns#"
   xmlns:rdf="http://www.w3.org/1999/02/22-rdf-syntax-ns#"
   xmlns:svg="http://www.w3.org/2000/svg"
   xmlns="http://www.w3.org/2000/svg"
   xmlns:sodipodi="http://sodipodi.sourceforge.net/DTD/sodipodi-0.dtd"
   xmlns:inkscape="http://www.inkscape.org/namespaces/inkscape"
   width="32"
   height="32"
   id="svg3344"
   version="1.1"
   inkscape:version="0.91 r13725"
   viewBox="0 0 32 32"
   sodipodi:docname="Unit icon.svg"
   inkscape:export-filename="G:\revealers\.src\Revealers - The shattering\Assets\Gizmos\SpellDirected icon.png"
   inkscape:export-xdpi="90"
   inkscape:export-ydpi="90">
  <defs
     id="defs3346">
    <linearGradient
       id="linearGradient4198"
       osb:paint="solid">
      <stop
         style="stop-color:#ffffff;stop-opacity:1;"
         offset="0"
         id="stop4200" />
    </linearGradient>
    <filter
       inkscape:collect="always"
       style="color-interpolation-filters:sRGB"
       id="filter4336"
       x="-0.057476708"
       width="1.1149534"
       y="-0.062755016"
       height="1.12551">
      <feGaussianBlur
         inkscape:collect="always"
         stdDeviation="0.7279541"
         id="feGaussianBlur4338" />
    </filter>
  </defs>
  <sodipodi:namedview
     id="base"
     pagecolor="#ffffff"
     bordercolor="#666666"
     borderopacity="1.0"
     inkscape:pageopacity="0.0"
     inkscape:pageshadow="2"
     inkscape:zoom="16"
     inkscape:cx="8.9965338"
     inkscape:cy="14.594505"
     inkscape:current-layer="svg3344"
     showgrid="true"
     inkscape:grid-bbox="true"
     inkscape:document-units="px"
     inkscape:snap-page="true"
     inkscape:window-width="1920"
     inkscape:window-height="1017"
     inkscape:window-x="-8"
     inkscape:window-y="-8"
     inkscape:window-maximized="1" />
  <metadata
     id="metadata3349">
    <rdf:RDF>
      <cc:Work
         rdf:about="">
        <dc:format>image/svg+xml</dc:format>
        <dc:type
           rdf:resource="http://purl.org/dc/dcmitype/StillImage" />
      </cc:Work>
    </rdf:RDF>
  </metadata>
  <g
     style="display:inline"
     id="g4304"
     inkscape:label="Shadow"
     inkscape:groupmode="layer">
    <path
       id="path4306"
       d="M 16,4.1601562 A 11.028951,11.840424 0 0 0 4.9707031,16 11.028951,11.840424 0 0 0 10.498047,26.248047 16.878311,11.252209 0 0 0 0.8046875,32 L 31.201172,32 A 16.878311,11.252209 0 0 0 21.507812,26.240234 11.028951,11.840424 0 0 0 27.029297,16 11.028951,11.840424 0 0 0 16,4.1601562 Z"
       style="opacity:1;fill:#000000;fill-opacity:1;stroke:none;stroke-width:1;stroke-linejoin:miter;stroke-miterlimit:4;stroke-dasharray:none;stroke-opacity:1;filter:url(#filter4336)"
       inkscape:connector-curvature="0" />
  </g>
  <g
     inkscape:groupmode="layer"
     inkscape:label="Forward"
     id="g4243"
     style="display:inline">
    <path
       style="opacity:1;fill:#ffffff;fill-opacity:1;stroke:none;stroke-width:1;stroke-linejoin:miter;stroke-miterlimit:4;stroke-dasharray:none;stroke-opacity:1"
       d="M 16,4.1601562 A 11.028951,11.840424 0 0 0 4.9707031,16 11.028951,11.840424 0 0 0 10.498047,26.248047 16.878311,11.252209 0 0 0 0.8046875,32 L 31.201172,32 A 16.878311,11.252209 0 0 0 21.507812,26.240234 11.028951,11.840424 0 0 0 27.029297,16 11.028951,11.840424 0 0 0 16,4.1601562 Z"
       id="path4282"
       inkscape:connector-curvature="0" />
  </g>
</svg>
